<?xml version="1.0" encoding="UTF-8"?>
<!DOCTYPE svg PUBLIC "-//W3C//DTD SVG 1.1//EN" "http://www.w3.org/Graphics/SVG/1.1/DTD/svg11.dtd">
<svg xmlns="http://www.w3.org/2000/svg" version="1.1" width="224px" height="80px" style="shape-rendering:geometricPrecision; text-rendering:geometricPrecision; image-rendering:optimizeQuality; fill-rule:evenodd; clip-rule:evenodd" xmlns:xlink="http://www.w3.org/1999/xlink">
<g><path style="opacity:0.844" fill="#cd181d" d="M 101.5,-0.5 C 104.833,-0.5 108.167,-0.5 111.5,-0.5C 114.539,1.45618 117.372,3.78951 120,6.5C 120.667,7.16667 120.667,7.83333 120,8.5C 112.276,7.93822 105.776,10.6049 100.5,16.5C 104.114,14.6932 107.78,12.8599 111.5,11C 115.428,9.67516 119.428,9.34183 123.5,10C 132.613,19.3851 137.446,30.5517 138,43.5C 136.577,32.5765 130.41,26.5765 119.5,25.5C 102.551,28.2269 87.3845,34.8935 74,45.5C 73.5,45 73,44.5 72.5,44C 76.8815,31.7366 82.7149,20.2366 90,9.5C 93.4351,5.55494 97.2685,2.22161 101.5,-0.5 Z M 100.5,16.5 C 99.7377,18.2624 98.4044,19.2624 96.5,19.5C 97.2623,17.7376 98.5956,16.7376 100.5,16.5 Z M 93.5,22.5 C 93.0269,23.9063 92.0269,24.573 90.5,24.5C 90.9731,23.0937 91.9731,22.427 93.5,22.5 Z"/></g>
<g><path style="opacity:0.812" fill="#fefffe" d="M 62.5,79.5 C 58.5,79.5 54.5,79.5 50.5,79.5C 41.2218,72.3826 40.2218,64.2159 47.5,55C 51.8935,52.6261 56.5602,51.9595 61.5,53C 66.7706,55.675 66.6039,58.175 61,60.5C 52.7255,57.422 49.0588,60.422 50,69.5C 53.0984,73.9519 56.9317,74.6185 61.5,71.5C 67.6403,73.7168 67.9736,76.3835 62.5,79.5 Z"/></g>
<g><path style="opacity:0.685" fill="#fefffe" d="M 183.5,79.5 C 179.5,79.5 175.5,79.5 171.5,79.5C 163.219,73.9986 161.386,66.6652 166,57.5C 171.306,52.3481 177.472,51.1814 184.5,54C 187.079,55.6117 187.079,57.1117 184.5,58.5C 175.281,53.2949 169.281,55.7949 166.5,66C 168.261,74.8864 173.594,78.2197 182.5,76C 183.444,73.2809 183.777,70.4475 183.5,67.5C 181.5,67.5 179.5,67.5 177.5,67.5C 177.5,66.5 177.5,65.5 177.5,64.5C 180.5,64.5 183.5,64.5 186.5,64.5C 186.5,69.1667 186.5,73.8333 186.5,78.5C 185.209,78.2627 184.209,78.596 183.5,79.5 Z"/></g>
<g><path style="opacity:0.89" fill="#fefffe" d="M -0.5,53.5 C 4.51108,53.3341 9.51108,53.5007 14.5,54C 19.553,57.713 20.3864,62.213 17,67.5C 13.3797,69.1834 9.54634,69.8501 5.5,69.5C 5.93965,73.1785 5.27298,76.5118 3.5,79.5C 2.16667,79.5 0.833333,79.5 -0.5,79.5C -0.5,70.8333 -0.5,62.1667 -0.5,53.5 Z M 5.5,58.5 C 14.7035,60.289 14.7035,61.9557 5.5,63.5C 5.5,61.8333 5.5,60.1667 5.5,58.5 Z"/></g>
<g><path style="opacity:0.808" fill="#fefffe" d="M 40.5,79.5 C 34.1667,79.5 27.8333,79.5 21.5,79.5C 21.5,70.8333 21.5,62.1667 21.5,53.5C 27.8333,53.5 34.1667,53.5 40.5,53.5C 40.822,55.7224 40.1554,57.5557 38.5,59C 35.1832,59.4983 31.8499,59.665 28.5,59.5C 28.5,60.5 28.5,61.5 28.5,62.5C 32.1667,62.5 35.8333,62.5 39.5,62.5C 39.5,64.8333 39.5,67.1667 39.5,69.5C 35.8333,69.5 32.1667,69.5 28.5,69.5C 28.5,70.8333 28.5,72.1667 28.5,73.5C 32.1817,73.3347 35.8484,73.5014 39.5,74C 40.4061,75.6995 40.7394,77.5328 40.5,79.5 Z"/></g>
<g><path style="opacity:0.676" fill="#fefffe" d="M 90.5,79.5 C 84.8333,79.5 79.1667,79.5 73.5,79.5C 73.5,70.8333 73.5,62.1667 73.5,53.5C 79.2055,53.1712 84.8722,53.5046 90.5,54.5C 90.2907,55.086 89.9574,55.586 89.5,56C 85.5138,56.4988 81.5138,56.6655 77.5,56.5C 77.5,59.1667 77.5,61.8333 77.5,64.5C 81.5,64.5 85.5,64.5 89.5,64.5C 89.5,65.5 89.5,66.5 89.5,67.5C 85.5,67.5 81.5,67.5 77.5,67.5C 77.5,70.5 77.5,73.5 77.5,76.5C 81.8333,76.5 86.1667,76.5 90.5,76.5C 90.5,77.5 90.5,78.5 90.5,79.5 Z"/></g>
<g><path style="opacity:0.676" fill="#fefffe" d="M 116.5,79.5 C 115.167,79.5 113.833,79.5 112.5,79.5C 108.221,72.7146 103.721,66.0479 99,59.5C 98.7953,66.2464 98.2953,72.9131 97.5,79.5C 96.5,79.5 95.5,79.5 94.5,79.5C 94.5,70.8333 94.5,62.1667 94.5,53.5C 97.0444,53.1043 99.2111,53.771 101,55.5C 105,61.5 109,67.5 113,73.5C 113.5,66.8417 113.666,60.175 113.5,53.5C 114.5,53.5 115.5,53.5 116.5,53.5C 116.5,62.1667 116.5,70.8333 116.5,79.5 Z"/></g>
<g><path style="opacity:0.677" fill="#fefffe" d="M 139.5,79.5 C 133.833,79.5 128.167,79.5 122.5,79.5C 122.5,70.8333 122.5,62.1667 122.5,53.5C 128.206,53.1712 133.872,53.5046 139.5,54.5C 139.291,55.086 138.957,55.586 138.5,56C 134.514,56.4988 130.514,56.6655 126.5,56.5C 126.5,59.1667 126.5,61.8333 126.5,64.5C 130.5,64.5 134.5,64.5 138.5,64.5C 138.5,65.5 138.5,66.5 138.5,67.5C 134.5,67.5 130.5,67.5 126.5,67.5C 126.5,70.5 126.5,73.5 126.5,76.5C 130.833,76.5 135.167,76.5 139.5,76.5C 139.5,77.5 139.5,78.5 139.5,79.5 Z"/></g>
<g><path style="opacity:0.65" fill="#fefffe" d="M 161.5,79.5 C 160.5,79.5 159.5,79.5 158.5,79.5C 155.928,76.0308 153.594,72.3642 151.5,68.5C 150.311,67.5713 148.978,67.238 147.5,67.5C 147.763,71.6002 147.43,75.6002 146.5,79.5C 145.5,79.5 144.5,79.5 143.5,79.5C 143.5,70.8333 143.5,62.1667 143.5,53.5C 148.179,53.3342 152.845,53.5008 157.5,54C 160.349,56.5594 161.183,59.7261 160,63.5C 158.605,65.1123 157.105,66.6123 155.5,68C 157.646,71.7925 159.646,75.6258 161.5,79.5 Z M 147.5,56.5 C 149.857,56.3367 152.19,56.5034 154.5,57C 158.615,59.8105 158.282,62.1438 153.5,64C 151.527,64.4955 149.527,64.6621 147.5,64.5C 147.5,61.8333 147.5,59.1667 147.5,56.5 Z"/></g>
<g><path style="opacity:0.576" fill="#fefffe" d="M 195.5,79.5 C 194.5,79.5 193.5,79.5 192.5,79.5C 192.334,71.16 192.5,62.8267 193,54.5C 194.011,53.6634 195.178,53.33 196.5,53.5C 196.803,62.2511 196.47,70.9177 195.5,79.5 Z"/></g>
<g><path style="opacity:0.671" fill="#fefffe" d="M 223.5,75.5 C 223.5,76.8333 223.5,78.1667 223.5,79.5C 222.833,79.5 222.167,79.5 221.5,79.5C 219.553,77.7838 218.219,75.6171 217.5,73C 213.5,72.3333 209.5,72.3333 205.5,73C 204.281,75.2782 202.948,77.4449 201.5,79.5C 200.5,79.5 199.5,79.5 198.5,79.5C 201.229,72.8215 204.062,66.1549 207,59.5C 207.795,56.8848 209.295,54.8848 211.5,53.5C 212.442,53.6082 213.275,53.9415 214,54.5C 216.668,61.8279 219.835,68.8279 223.5,75.5 Z M 211.5,58.5 C 213.246,61.8716 214.912,65.3716 216.5,69C 213.167,69.6667 209.833,69.6667 206.5,69C 208.073,65.4448 209.739,61.9448 211.5,58.5 Z"/></g>
</svg>
